<svg xmlns="http://www.w3.org/2000/svg" viewBox="0 0 1024 1024" role="img" aria-labelledby="title desc">
  <title id="title">Travel Companion app icon</title>
  <desc id="desc">A cream location pin and coral compass on a forest green background.</desc>
  <rect width="1024" height="1024" fill="#1E5B43"/>
  <circle cx="188" cy="202" r="42" fill="#DDED9E"/>
  <circle cx="836" cy="814" r="64" fill="#F28C72" opacity="0.92"/>
  <path d="M128 778c132-76 254-91 366-44 116 49 243 41 402-50v212H128V778Z" fill="#123E2E" opacity="0.72"/>
  <path d="M512 112c-194 0-351 157-351 351 0 231 258 394 314 440 21 18 53 18 74 0 56-46 314-209 314-440 0-194-157-351-351-351Z" fill="#F5F4EE"/>
  <circle cx="512" cy="460" r="202" fill="#F28C72"/>
  <circle cx="512" cy="460" r="150" fill="#1E5B43"/>
  <path d="m512 319 38 103 103 38-103 38-38 103-38-103-103-38 103-38 38-103Z" fill="#DDED9E"/>
  <circle cx="512" cy="460" r="35" fill="#C49338"/>
</svg>
